<svg xmlns="http://www.w3.org/2000/svg" xmlns:xlink="http://www.w3.org/1999/xlink" width="500" zoomAndPan="magnify" viewBox="0 0 375 374.999991" height="500" preserveAspectRatio="xMidYMid meet" version="1.0"><defs><g/><clipPath id="id1"><path d="M 21.621094 89.101562 L 226.367188 89.101562 L 226.367188 285.601562 L 21.621094 285.601562 Z M 21.621094 89.101562 " clip-rule="nonzero"/></clipPath></defs><g clip-path="url(#id1)"><path fill="#ff914d" d="M 226.25 93.980469 C 225.628906 90.722656 222.496094 88.574219 219.222656 89.195312 L 187.210938 95.308594 C 185.183594 95.699219 183.492188 97.097656 182.730469 99.023438 L 168.785156 134.5625 L 91.128906 136.503906 C 95.066406 140.34375 97.519531 145.707031 97.519531 151.636719 C 97.519531 163.324219 88.050781 172.789062 76.375 172.789062 C 64.6875 172.789062 55.21875 163.324219 55.21875 151.636719 C 55.21875 151.445312 55.21875 151.25 55.234375 151.054688 C 53.734375 151.667969 52.085938 152.011719 50.367188 152.011719 C 43.199219 152.011719 37.390625 146.191406 37.390625 139.039062 C 37.390625 138.636719 37.417969 138.234375 37.445312 137.847656 L 27.492188 138.097656 C 25.785156 138.152344 24.175781 138.914062 23.082031 140.203125 C 21.972656 141.507812 21.460938 143.199219 21.679688 144.886719 L 30.234375 211.585938 C 30.597656 214.398438 32.898438 216.589844 35.726562 216.808594 L 139.363281 224.90625 L 158.078125 243.421875 C 160.257812 245.570312 159.453125 248.066406 159.175781 248.773438 C 158.882812 249.480469 157.691406 251.820312 154.628906 251.820312 L 29.25 251.820312 C 25.921875 251.820312 23.234375 254.511719 23.234375 257.835938 C 23.234375 261.148438 25.921875 263.851562 29.25 263.851562 L 42.117188 263.851562 C 38.636719 265.875 36.292969 269.617188 36.292969 273.929688 C 36.292969 280.359375 41.535156 285.601562 47.96875 285.601562 C 54.414062 285.601562 59.640625 280.359375 59.640625 273.929688 C 59.640625 269.617188 57.285156 265.875 53.820312 263.851562 L 150.898438 263.851562 C 147.417969 265.875 145.074219 269.617188 145.074219 273.929688 C 145.074219 280.359375 150.316406 285.601562 156.75 285.601562 C 163.183594 285.601562 168.421875 280.359375 168.421875 273.929688 C 168.421875 268.773438 165.054688 264.394531 160.410156 262.855469 C 164.832031 261.289062 168.394531 257.949219 170.28125 253.347656 C 172.941406 246.875 171.5 239.804688 166.539062 234.871094 L 149.082031 217.585938 L 178.515625 142.683594 C 178.515625 142.671875 178.515625 142.671875 178.515625 142.671875 L 192.714844 106.496094 L 221.46875 101.007812 C 224.742188 100.394531 226.875 97.25 226.25 93.980469 Z M 55.273438 273.929688 C 55.273438 277.960938 51.988281 281.234375 47.96875 281.234375 C 43.949219 281.234375 40.660156 277.960938 40.660156 273.929688 C 40.660156 269.910156 43.949219 266.625 47.96875 266.625 C 51.988281 266.625 55.273438 269.894531 55.273438 273.929688 Z M 164.054688 273.929688 C 164.054688 277.960938 160.769531 281.234375 156.75 281.234375 C 152.726562 281.234375 149.441406 277.960938 149.441406 273.929688 C 149.441406 269.910156 152.726562 266.625 156.75 266.625 C 160.769531 266.625 164.054688 269.894531 164.054688 273.929688 Z M 164.054688 273.929688 " fill-opacity="1" fill-rule="nonzero"/></g><path fill="#ff914d" d="M 47.96875 270.519531 C 46.082031 270.519531 44.558594 272.042969 44.558594 273.929688 C 44.558594 275.816406 46.082031 277.339844 47.96875 277.339844 C 49.855469 277.339844 51.378906 275.816406 51.378906 273.929688 C 51.378906 272.042969 49.855469 270.519531 47.96875 270.519531 Z M 47.96875 270.519531 " fill-opacity="1" fill-rule="nonzero"/><path fill="#ff914d" d="M 153.339844 273.929688 C 153.339844 275.816406 154.863281 277.339844 156.75 277.339844 C 158.632812 277.339844 160.160156 275.816406 160.160156 273.929688 C 160.160156 272.042969 158.632812 270.519531 156.75 270.519531 C 154.863281 270.519531 153.339844 272.042969 153.339844 273.929688 Z M 153.339844 273.929688 " fill-opacity="1" fill-rule="nonzero"/><path fill="#1f763b" d="M 91.433594 151.652344 C 91.433594 152.640625 91.335938 153.621094 91.144531 154.589844 C 90.949219 155.5625 90.664062 156.503906 90.285156 157.417969 C 89.90625 158.332031 89.441406 159.199219 88.894531 160.023438 C 88.34375 160.84375 87.71875 161.605469 87.019531 162.304688 C 86.320312 163.003906 85.558594 163.628906 84.734375 164.179688 C 83.914062 164.730469 83.042969 165.191406 82.128906 165.570312 C 81.214844 165.949219 80.273438 166.234375 79.304688 166.429688 C 78.332031 166.621094 77.351562 166.71875 76.363281 166.71875 C 75.375 166.71875 74.394531 166.621094 73.421875 166.429688 C 72.453125 166.234375 71.507812 165.949219 70.59375 165.570312 C 69.679688 165.191406 68.8125 164.730469 67.988281 164.179688 C 67.167969 163.628906 66.40625 163.003906 65.707031 162.304688 C 65.007812 161.605469 64.382812 160.84375 63.832031 160.023438 C 63.28125 159.199219 62.816406 158.332031 62.4375 157.417969 C 62.058594 156.503906 61.773438 155.5625 61.582031 154.589844 C 61.386719 153.621094 61.292969 152.640625 61.292969 151.652344 C 61.292969 150.664062 61.386719 149.683594 61.582031 148.714844 C 61.773438 147.742188 62.058594 146.800781 62.4375 145.886719 C 62.816406 144.972656 63.28125 144.105469 63.832031 143.28125 C 64.382812 142.460938 65.007812 141.699219 65.707031 141 C 66.40625 140.300781 67.167969 139.675781 67.988281 139.125 C 68.8125 138.574219 69.679688 138.113281 70.59375 137.734375 C 71.507812 137.355469 72.453125 137.070312 73.421875 136.875 C 74.394531 136.683594 75.375 136.585938 76.363281 136.585938 C 77.351562 136.585938 78.332031 136.683594 79.304688 136.875 C 80.273438 137.070312 81.214844 137.355469 82.128906 137.734375 C 83.042969 138.113281 83.914062 138.574219 84.734375 139.125 C 85.558594 139.675781 86.320312 140.300781 87.019531 141 C 87.71875 141.699219 88.34375 142.460938 88.894531 143.28125 C 89.441406 144.105469 89.90625 144.972656 90.285156 145.886719 C 90.664062 146.800781 90.949219 147.742188 91.144531 148.714844 C 91.335938 149.683594 91.433594 150.664062 91.433594 151.652344 Z M 91.433594 151.652344 " fill-opacity="1" fill-rule="nonzero"/><path fill="#1f763b" d="M 57.148438 139.054688 C 57.148438 139.519531 57.101562 139.980469 57.011719 140.433594 C 56.917969 140.890625 56.785156 141.332031 56.605469 141.761719 C 56.429688 142.191406 56.210938 142.601562 55.953125 142.988281 C 55.695312 143.375 55.402344 143.734375 55.070312 144.0625 C 54.742188 144.390625 54.382812 144.683594 53.996094 144.941406 C 53.609375 145.199219 53.203125 145.417969 52.773438 145.597656 C 52.34375 145.773438 51.898438 145.910156 51.445312 146 C 50.988281 146.089844 50.527344 146.136719 50.0625 146.136719 C 49.597656 146.136719 49.136719 146.089844 48.679688 146 C 48.222656 145.910156 47.78125 145.773438 47.351562 145.597656 C 46.921875 145.417969 46.511719 145.199219 46.125 144.941406 C 45.738281 144.683594 45.382812 144.390625 45.050781 144.0625 C 44.722656 143.734375 44.429688 143.375 44.171875 142.988281 C 43.914062 142.601562 43.695312 142.191406 43.515625 141.761719 C 43.339844 141.332031 43.203125 140.890625 43.113281 140.433594 C 43.023438 139.980469 42.976562 139.519531 42.976562 139.054688 C 42.976562 138.589844 43.023438 138.128906 43.113281 137.671875 C 43.203125 137.214844 43.339844 136.773438 43.515625 136.34375 C 43.695312 135.914062 43.914062 135.503906 44.171875 135.117188 C 44.429688 134.730469 44.722656 134.375 45.050781 134.042969 C 45.382812 133.714844 45.738281 133.421875 46.125 133.164062 C 46.511719 132.90625 46.921875 132.6875 47.351562 132.507812 C 47.78125 132.332031 48.222656 132.195312 48.679688 132.105469 C 49.136719 132.015625 49.597656 131.96875 50.0625 131.96875 C 50.527344 131.96875 50.988281 132.015625 51.445312 132.105469 C 51.898438 132.195312 52.34375 132.332031 52.773438 132.507812 C 53.203125 132.6875 53.609375 132.90625 53.996094 133.164062 C 54.382812 133.421875 54.742188 133.714844 55.070312 134.042969 C 55.402344 134.375 55.695312 134.730469 55.953125 135.117188 C 56.210938 135.503906 56.429688 135.914062 56.605469 136.34375 C 56.785156 136.773438 56.917969 137.214844 57.011719 137.671875 C 57.101562 138.128906 57.148438 138.589844 57.148438 139.054688 Z M 57.148438 139.054688 " fill-opacity="1" fill-rule="nonzero"/><path fill="#1f763b" d="M 79.425781 117.195312 C 79.425781 117.859375 79.363281 118.519531 79.230469 119.171875 C 79.101562 119.824219 78.910156 120.457031 78.65625 121.074219 C 78.402344 121.6875 78.089844 122.269531 77.71875 122.824219 C 77.347656 123.378906 76.929688 123.890625 76.457031 124.359375 C 75.988281 124.828125 75.476562 125.25 74.921875 125.621094 C 74.371094 125.988281 73.785156 126.300781 73.171875 126.554688 C 72.554688 126.808594 71.921875 127.003906 71.269531 127.132812 C 70.617188 127.261719 69.957031 127.328125 69.292969 127.328125 C 68.625 127.328125 67.96875 127.261719 67.316406 127.132812 C 66.660156 127.003906 66.027344 126.808594 65.414062 126.554688 C 64.796875 126.300781 64.214844 125.988281 63.660156 125.621094 C 63.109375 125.25 62.597656 124.828125 62.125 124.359375 C 61.65625 123.890625 61.234375 123.378906 60.863281 122.824219 C 60.496094 122.269531 60.183594 121.6875 59.929688 121.074219 C 59.671875 120.457031 59.480469 119.824219 59.351562 119.171875 C 59.222656 118.519531 59.15625 117.859375 59.15625 117.195312 C 59.15625 116.53125 59.222656 115.871094 59.351562 115.21875 C 59.480469 114.566406 59.671875 113.933594 59.929688 113.316406 C 60.183594 112.703125 60.496094 112.121094 60.863281 111.566406 C 61.234375 111.011719 61.65625 110.5 62.125 110.03125 C 62.597656 109.558594 63.109375 109.140625 63.660156 108.769531 C 64.214844 108.402344 64.796875 108.089844 65.414062 107.835938 C 66.027344 107.578125 66.660156 107.386719 67.316406 107.257812 C 67.96875 107.128906 68.625 107.0625 69.292969 107.0625 C 69.957031 107.0625 70.617188 107.128906 71.269531 107.257812 C 71.921875 107.386719 72.554688 107.578125 73.171875 107.835938 C 73.785156 108.089844 74.371094 108.402344 74.921875 108.769531 C 75.476562 109.140625 75.988281 109.558594 76.457031 110.03125 C 76.929688 110.5 77.347656 111.011719 77.71875 111.566406 C 78.089844 112.121094 78.402344 112.703125 78.65625 113.316406 C 78.910156 113.933594 79.101562 114.566406 79.230469 115.21875 C 79.363281 115.871094 79.425781 116.53125 79.425781 117.195312 Z M 79.425781 117.195312 " fill-opacity="1" fill-rule="nonzero"/><path fill="#1f763b" d="M 63.59375 98.386719 C 63.59375 98.695312 63.5625 99.003906 63.503906 99.308594 C 63.441406 99.613281 63.351562 99.910156 63.234375 100.195312 C 63.113281 100.480469 62.96875 100.753906 62.796875 101.011719 C 62.625 101.269531 62.429688 101.507812 62.207031 101.730469 C 61.988281 101.949219 61.75 102.144531 61.492188 102.316406 C 61.234375 102.488281 60.960938 102.632812 60.675781 102.753906 C 60.386719 102.871094 60.09375 102.960938 59.789062 103.023438 C 59.484375 103.082031 59.175781 103.113281 58.867188 103.113281 C 58.554688 103.113281 58.246094 103.082031 57.945312 103.023438 C 57.640625 102.960938 57.34375 102.871094 57.054688 102.753906 C 56.769531 102.632812 56.496094 102.488281 56.238281 102.316406 C 55.980469 102.144531 55.742188 101.949219 55.523438 101.730469 C 55.304688 101.507812 55.105469 101.269531 54.933594 101.011719 C 54.761719 100.753906 54.617188 100.480469 54.496094 100.195312 C 54.378906 99.910156 54.289062 99.613281 54.230469 99.308594 C 54.167969 99.003906 54.136719 98.695312 54.136719 98.386719 C 54.136719 98.074219 54.167969 97.769531 54.230469 97.464844 C 54.289062 97.160156 54.378906 96.863281 54.496094 96.578125 C 54.617188 96.292969 54.761719 96.019531 54.933594 95.761719 C 55.105469 95.503906 55.304688 95.265625 55.523438 95.042969 C 55.742188 94.824219 55.980469 94.628906 56.238281 94.457031 C 56.496094 94.285156 56.769531 94.136719 57.054688 94.019531 C 57.34375 93.902344 57.640625 93.8125 57.945312 93.75 C 58.246094 93.691406 58.554688 93.660156 58.867188 93.660156 C 59.175781 93.660156 59.484375 93.691406 59.789062 93.75 C 60.09375 93.8125 60.386719 93.902344 60.675781 94.019531 C 60.960938 94.136719 61.234375 94.285156 61.492188 94.457031 C 61.75 94.628906 61.988281 94.824219 62.207031 95.042969 C 62.429688 95.265625 62.625 95.503906 62.796875 95.761719 C 62.96875 96.019531 63.113281 96.292969 63.234375 96.578125 C 63.351562 96.863281 63.441406 97.160156 63.503906 97.464844 C 63.5625 97.769531 63.59375 98.074219 63.59375 98.386719 Z M 63.59375 98.386719 " fill-opacity="1" fill-rule="nonzero"/><path fill="#1f763b" d="M 51.378906 115.421875 C 51.378906 115.914062 51.285156 116.390625 51.09375 116.847656 C 50.90625 117.304688 50.636719 117.707031 50.285156 118.058594 C 49.9375 118.40625 49.535156 118.675781 49.078125 118.867188 C 48.621094 119.054688 48.144531 119.148438 47.648438 119.148438 C 47.15625 119.148438 46.679688 119.054688 46.222656 118.867188 C 45.765625 118.675781 45.363281 118.40625 45.011719 118.058594 C 44.664062 117.707031 44.394531 117.304688 44.203125 116.847656 C 44.015625 116.390625 43.917969 115.914062 43.917969 115.421875 C 43.917969 114.925781 44.015625 114.449219 44.203125 113.996094 C 44.394531 113.539062 44.664062 113.132812 45.011719 112.785156 C 45.363281 112.433594 45.765625 112.164062 46.222656 111.976562 C 46.679688 111.789062 47.15625 111.691406 47.648438 111.691406 C 48.144531 111.691406 48.621094 111.789062 49.078125 111.976562 C 49.535156 112.164062 49.9375 112.433594 50.285156 112.785156 C 50.636719 113.132812 50.90625 113.539062 51.09375 113.996094 C 51.285156 114.449219 51.378906 114.925781 51.378906 115.421875 Z M 51.378906 115.421875 " fill-opacity="1" fill-rule="nonzero"/><g fill="#1f763b" fill-opacity="1"><g transform="translate(199.68903, 262.901481)"><g><path d="M 50.257812 -40.878906 C 50.257812 -40.878906 50.257812 -44.796875 52.847656 -48.859375 L 41.71875 -48.859375 L 28.699219 -12.320312 L 10.78125 -48.859375 L 1.191406 -48.859375 C 3.011719 -45.847656 3.710938 -43.609375 3.710938 -39.058594 L 3.710938 -9.941406 C 3.5 -5.25 3.21875 -3.359375 1.191406 -0.140625 L 12.25 -0.140625 C 10.21875 -3.21875 9.519531 -5.601562 9.519531 -9.941406 L 9.519531 -31.917969 L 20.578125 -4.898438 C 22.050781 -1.820312 24.847656 0.421875 28.839844 0.210938 L 41.71875 -33.25 L 41.71875 -8.121094 C 41.71875 -5.320312 40.808594 -2.660156 39.058594 -0.140625 L 52.847656 -0.140625 C 50.257812 -4.199219 50.257812 -8.121094 50.257812 -8.121094 Z M 50.257812 -40.878906 "/></g></g></g><g fill="#1f763b" fill-opacity="1"><g transform="translate(260.725958, 262.901481)"><g><path d="M 29.820312 -9.167969 C 29.820312 -14.769531 29.820312 -19.390625 29.820312 -24.988281 C 29.820312 -26.320312 29.679688 -31.5 20.019531 -35.277344 C 14.839844 -37.308594 9.03125 -36.75 5.039062 -32.828125 L 8.46875 -24.289062 C 10.429688 -28.347656 14.488281 -31.777344 18.6875 -31.777344 C 20.859375 -31.777344 21.347656 -26.109375 21.210938 -24.570312 C 16.589844 -22.328125 8.75 -18.410156 2.660156 -15.328125 C 1.121094 -14.488281 0.488281 -13.089844 0.488281 -11.621094 C 0.488281 -6.648438 7.210938 0.488281 11.480469 0.488281 C 15.328125 0.488281 20.230469 -4.410156 21.628906 -5.808594 L 21.628906 -4.621094 C 21.628906 -0.628906 24.710938 0.0703125 24.710938 0.0703125 L 32.339844 -3.148438 C 29.890625 -5.109375 29.820312 -8.539062 29.820312 -9.167969 Z M 15.539062 -7.140625 C 14.488281 -7.140625 13.507812 -7.210938 12.597656 -7.417969 C 10.917969 -7.769531 9.589844 -9.871094 9.589844 -12.039062 C 9.589844 -13.648438 10.359375 -15.328125 12.25 -16.519531 C 17.917969 -20.019531 20.230469 -21.417969 21.277344 -22.050781 L 21.628906 -8.050781 C 20.300781 -7.488281 17.847656 -7.140625 15.539062 -7.140625 Z M 15.539062 -7.140625 "/></g></g></g><g fill="#1f763b" fill-opacity="1"><g transform="translate(300.834035, 262.901481)"><g><path d="M 22.820312 -36.1875 C 17.359375 -36.1875 13.089844 -31.707031 11.621094 -30.027344 L 11.621094 -36.328125 L 0.910156 -31.429688 C 3.359375 -29.398438 3.5 -25.199219 3.5 -25.199219 L 3.5 -8.050781 C 3.5 -7.140625 3.359375 -3.011719 0.910156 0 L 14.347656 0 C 11.757812 -4.128906 11.691406 -7.910156 11.691406 -8.257812 L 11.621094 -27.71875 C 13.300781 -28.417969 14.769531 -28.769531 15.960938 -28.769531 C 20.300781 -28.769531 21.980469 -25.058594 21.980469 -25.058594 L 28.839844 -33.597656 C 28.839844 -33.597656 27.367188 -36.1875 22.820312 -36.1875 Z M 22.820312 -36.1875 "/></g></g></g><g fill="#1f763b" fill-opacity="1"><g transform="translate(336.392359, 262.901481)"><g><path d="M 12.25 -7.839844 C 12.25 -8.890625 12.25 -31.289062 12.25 -31.289062 L 19.109375 -31.289062 L 20.4375 -34.789062 L 12.109375 -34.789062 L 12.109375 -43.046875 L 0.699219 -31.289062 L 4.058594 -31.289062 C 4.058594 -31.289062 3.289062 -11.199219 3.21875 -8.121094 C 3.148438 -4.96875 5.460938 1.050781 12.667969 1.050781 C 22.328125 1.050781 25.058594 -4.550781 25.058594 -4.550781 C 23.167969 -3.78125 12.25 -2.238281 12.25 -7.839844 Z M 12.25 -7.839844 "/></g></g></g><g fill="#1f763b" fill-opacity="1"><g transform="translate(226.619169, 184.580592)"><g><path d="M 36.804688 -38.785156 C 43.414062 -40.21875 53.882812 -44.957031 53.882812 -60.824219 C 53.882812 -77.023438 33.386719 -77.023438 33.386719 -77.023438 L 1.652344 -77.023438 C 5.621094 -72.394531 5.730469 -65.5625 5.730469 -64.570312 L 5.730469 -12.671875 C 5.730469 -11.679688 5.621094 -4.847656 1.652344 -0.21875 L 24.574219 -0.21875 C 20.496094 -5.621094 20.496094 -12.78125 20.496094 -12.78125 L 20.496094 -38.566406 C 24.019531 -32.835938 42.203125 -3.855469 46.71875 -1.101562 C 48.8125 0.21875 52.230469 0.550781 55.644531 0.550781 C 60.496094 0.550781 65.234375 -0.21875 65.234375 -0.21875 C 56.085938 -6.5 40.878906 -31.84375 36.804688 -38.785156 Z M 25.234375 -42.535156 L 20.496094 -42.535156 L 20.496094 -69.53125 L 25.234375 -69.53125 C 25.234375 -69.53125 40 -69.53125 40 -58.289062 C 40 -42.753906 25.234375 -42.535156 25.234375 -42.535156 Z M 25.234375 -42.535156 "/></g></g></g><g fill="#1f763b" fill-opacity="1"><g transform="translate(290.633512, 184.580592)"><g><path d="M 41.429688 -9.257812 C 40.109375 -8.265625 38.675781 -7.714844 37.023438 -7.601562 L 20.496094 -7.601562 L 20.496094 -35.152344 L 31.734375 -35.152344 C 31.734375 -35.152344 37.90625 -35.152344 44.296875 -31.074219 L 44.296875 -46.71875 C 39.667969 -42.753906 32.835938 -42.644531 31.84375 -42.535156 L 20.496094 -42.535156 L 20.496094 -69.640625 L 37.023438 -69.640625 C 38.675781 -69.53125 40.109375 -68.980469 41.429688 -67.988281 L 48.261719 -62.699219 L 53.773438 -77.023438 L 1.652344 -77.023438 C 5.621094 -72.394531 5.730469 -65.5625 5.730469 -64.570312 L 5.730469 -12.671875 C 5.730469 -11.679688 5.621094 -4.847656 1.652344 -0.21875 L 53.773438 -0.21875 L 48.042969 -14.875 Z M 41.429688 -9.257812 "/></g></g></g></svg>